<?xml version="1.0" encoding="UTF-8" standalone="no"?>
<!-- Created with Inkscape (http://www.inkscape.org/) -->

<svg
   width="210mm"
   height="297mm"
   viewBox="0 0 210 297"
   version="1.1"
   id="svg5"
   xml:space="preserve"
   inkscape:version="1.2.1 (9c6d41e410, 2022-07-14)"
   sodipodi:docname="MoBiDig.svg"
   xmlns:inkscape="http://www.inkscape.org/namespaces/inkscape"
   xmlns:sodipodi="http://sodipodi.sourceforge.net/DTD/sodipodi-0.dtd"
   xmlns="http://www.w3.org/2000/svg"
   xmlns:svg="http://www.w3.org/2000/svg"><sodipodi:namedview
     id="namedview7"
     pagecolor="#ffffff"
     bordercolor="#111111"
     borderopacity="1"
     inkscape:showpageshadow="0"
     inkscape:pageopacity="0"
     inkscape:pagecheckerboard="1"
     inkscape:deskcolor="#d1d1d1"
     inkscape:document-units="mm"
     showgrid="false"
     inkscape:zoom="0.2102413"
     inkscape:cx="-76.103029"
     inkscape:cy="561.25984"
     inkscape:window-width="1440"
     inkscape:window-height="837"
     inkscape:window-x="-8"
     inkscape:window-y="-8"
     inkscape:window-maximized="1"
     inkscape:current-layer="layer1" /><defs
     id="defs2" /><g
     inkscape:label="Capa 1"
     inkscape:groupmode="layer"
     id="layer1"><g
       inkscape:label="Capa 1"
       id="layer1-9"
       transform="matrix(2.5071465,0,0,2.5071465,-15.970042,-49.17669)"><path
         style="display:inline;fill:#ffffff;fill-opacity:1;stroke-width:0.222212"
         d="M 43.556324,128.96295 C 39.118109,126.4416 33.162485,122.58118 29.654094,119.95157 18.330207,111.4641 11.697914,102.64154 9.1171947,92.63249 7.6829601,87.069969 7.675985,86.934534 7.675985,64.646094 c 0,-11.121692 0.078974,-20.593303 0.1755001,-21.048016 0.2029038,-0.955841 1.0483103,-2.047636 1.9443276,-2.510984 0.3423833,-0.17705 1.9053983,-0.525095 3.4733663,-0.773414 9.706079,-1.537212 18.761339,-3.95843 25.034057,-6.693683 2.581407,-1.125638 6.690936,-3.220112 8.249774,-4.204607 l 1.448214,-0.914631 1.280802,0.77306 c 8.263495,4.987592 19.532257,8.715713 33.057083,10.936483 1.955474,0.321086 3.855376,0.755853 4.222032,0.966145 0.366643,0.21029 0.91662,0.827215 1.22215,1.370945 0.53442,0.951011 0.560594,1.182896 0.688431,6.099458 0.07306,2.810979 0.115602,12.160542 0.0944,20.776802 -0.04119,16.740962 -0.06277,17.126967 -1.243407,22.221168 -2.021281,8.72103 -6.849876,16.31457 -14.872033,23.38807 -4.385064,3.86652 -8.865255,7.2138 -13.666019,10.21024 -2.26294,1.41246 -10.618338,6.17759 -10.832048,6.17759 -0.03856,0 -2.016845,-1.10599 -4.396297,-2.45777 z m -8.920181,-21.36639 c -0.215931,-0.70356 -0.187604,-0.87732 0.229429,-1.40749 0.633574,-0.80546 0.600594,-0.98933 -0.177452,-0.98933 -0.594431,0 -0.659428,-0.075 -0.722187,-0.8333 l -0.06897,-0.83329 -0.527317,0.84821 c -0.503787,0.81036 -0.566651,0.84156 -1.408912,0.69926 -0.837486,-0.14149 -0.869411,-0.12619 -0.638097,0.30603 0.133922,0.25023 0.342208,0.51598 0.462858,0.59055 0.132901,0.0821 0.03873,0.48963 -0.238909,1.03385 -0.25205,0.49406 -0.401796,0.95477 -0.332769,1.02379 0.06902,0.069 0.538967,-0.0109 1.044313,-0.17773 0.843865,-0.27849 0.984426,-0.26503 1.723245,0.16509 0.44244,0.25758 0.826185,0.44778 0.852771,0.42267 0.02659,-0.0251 -0.06252,-0.40685 -0.198003,-0.84831 z m 28.958764,-0.0489 c 0.473385,0.21346 0.916643,0.33217 0.985032,0.26378 0.06837,-0.0684 -0.08146,-0.5277 -0.332935,-1.02068 l -0.457275,-0.89634 0.552884,-0.4349 c 0.748547,-0.58881 0.699324,-0.70425 -0.300299,-0.70425 -0.71302,0 -0.900332,-0.10039 -1.140195,-0.61108 l -0.287013,-0.61108 -0.211593,0.61107 c -0.175253,0.50612 -0.342013,0.61108 -0.970821,0.61108 -0.88122,0 -0.928469,0.12452 -0.300812,0.79264 0.434785,0.4628 0.440512,0.53081 0.111105,1.31917 -0.503846,1.20587 -0.447155,1.28134 0.571958,0.76143 0.892439,-0.45528 0.944377,-0.45765 1.779965,-0.0809 z m -21.36615,-1.55239 c 1.853424,-0.75312 4.265648,-2.42615 5.606881,-3.88875 1.946614,-2.12275 4.45915,-6.3325 5.612095,-9.403086 0.21733,-0.578795 0.507096,-1.143371 0.643925,-1.254626 0.406734,-0.330711 7.343351,-1.245011 15.469321,-2.038976 2.627121,-0.256685 4.827015,-0.517242 4.888652,-0.579013 0.06166,-0.06181 0.100644,-0.783728 0.08667,-1.604341 -0.03212,-1.884427 -0.631401,-3.297214 -1.765152,-4.160955 l -0.843409,-0.642532 -3.793897,0.0085 c -5.616501,0.01201 -15.352743,1.028922 -19.203337,2.005708 -2.861031,0.725752 -4.221531,1.408278 -8.274098,4.150851 -3.829684,2.591735 -5.294507,3.342901 -7.739403,3.968828 -3.981863,1.019408 -8.221812,0.02562 -10.561242,-2.475414 -1.176309,-1.257574 -1.866252,-2.553168 -2.041843,-3.83425 -0.112722,-0.822369 -0.04623,-1.055774 0.478237,-1.679081 0.335032,-0.398158 1.220774,-1.029848 1.968315,-1.403742 1.59721,-0.798879 2.065127,-1.179821 2.512965,-2.045837 0.501855,-0.970487 -0.0029,-1.363237 -1.701952,-1.324175 -1.538942,0.03535 -3.263776,0.740576 -4.529469,1.851864 l -0.835321,0.733421 -2.184058,-0.729448 c -2.42152,-0.808755 -3.526057,-0.8091 -4.854071,-0.0017 -1.4834147,0.902115 -0.633127,1.921413 2.093288,2.509355 0.960905,0.207216 2.068544,0.573024 2.461419,0.812895 0.832653,0.508389 1.696828,1.798988 2.457056,3.66947 0.740712,1.822471 1.766714,3.829774 2.501235,4.893501 1.657898,2.400954 5.338165,5.221977 6.812525,5.221977 1.910542,0 12.75295,-3.427173 17.457892,-5.51826 0.694837,-0.308816 -0.532286,3.412894 -2.515517,7.629266 -0.919197,1.95432 -2.20648,5.21803 -2.20648,5.5943 0,0.20486 0.817586,0.0145 1.998758,-0.46551 z m 17.25699,-17.645618 c -0.504023,-0.556934 -0.46098,-1.058621 0.126113,-1.469832 0.662864,-0.464288 1.576904,-0.437034 2.027125,0.06047 0.480665,0.531124 0.463911,0.830741 -0.07668,1.371323 -0.555228,0.555228 -1.591349,0.574218 -2.076568,0.03805 z m 4.666446,-0.444427 c -0.202271,-0.223501 -0.367755,-0.566222 -0.367755,-0.761605 0,-0.426117 1.023195,-1.276354 1.536002,-1.276354 0.619578,0 1.352746,0.662394 1.352746,1.222166 0,1.060864 -1.778401,1.636357 -2.520993,0.815793 z m 5.089022,-0.531923 c -0.457176,-0.652701 -0.436335,-0.971191 0.09856,-1.506036 0.878089,-0.878085 2.222107,-0.30102 2.222107,0.954084 0,1.057209 -1.68586,1.458198 -2.32062,0.551952 z M 41.398963,98.896768 c 0.591965,-1.327835 1.046081,-2.443859 1.009171,-2.480066 -0.03695,-0.0362 -0.767091,0.166745 -1.622609,0.450986 -1.773731,0.589326 -7.019942,2.167389 -8.639926,2.598897 -0.596604,0.158918 -1.095105,0.388937 -1.107779,0.511154 -0.04761,0.459111 6.702297,1.497101 8.849647,1.360881 0.330638,-0.021 0.693821,-0.60771 1.511496,-2.441852 z m 13.99558,1.859932 c 8.203487,-0.972766 12.959511,-2.523651 15.855264,-5.170205 1.242011,-1.135131 2.441678,-2.979352 2.665271,-4.097258 l 0.131551,-0.657783 -1.520168,0.163554 c -0.836077,0.08995 -2.620096,0.280352 -3.96447,0.423101 -1.344385,0.14276 -4.825989,0.552147 -7.736902,0.909757 -2.910914,0.357619 -5.367397,0.650208 -5.45885,0.650208 -0.09146,0 -0.39773,0.574973 -0.680617,1.277714 -0.642045,1.594961 -1.823017,3.779449 -2.936647,5.432 -0.469051,0.696042 -0.852824,1.321012 -0.852824,1.388822 0,0.18997 0.496121,0.15468 4.498392,-0.31991 z M 33.440785,80.551197 c 0.555071,-0.800971 0.66816,-0.861498 1.390537,-0.744271 l 0.786327,0.127599 -0.37244,-0.568414 c -0.245528,-0.374728 -0.292606,-0.617755 -0.138156,-0.713214 0.494911,-0.305875 0.245394,-0.803203 -0.370295,-0.738066 -0.499152,0.05282 -0.683215,-0.08122 -1.055505,-0.768726 -0.248009,-0.457983 -0.517132,-0.832961 -0.59805,-0.833297 -0.08093,-2.19e-4 -0.21444,0.397822 -0.296712,0.884787 -0.134968,0.798864 -0.23459,0.90827 -1.019483,1.11962 -0.478447,0.128834 -0.869901,0.311865 -0.869901,0.406735 0,0.09488 0.349983,0.339384 0.777741,0.543369 0.660232,0.314844 0.777741,0.483337 0.777741,1.115176 0,0.621728 0.136908,1.04058 0.340132,1.04058 0.02411,0 0.315745,-0.392337 0.648064,-0.871878 z m 35.367368,-9.952672 c 0.624266,-0.52396 1.197155,-0.952665 1.273099,-0.952665 0.07588,0 1.286768,0.899956 2.690708,1.999906 1.403952,1.09995 2.666803,1.999905 2.80636,1.999905 0.151975,0 0.20366,-0.200507 0.128879,-0.499974 -0.06865,-0.274994 -0.384676,-1.749922 -0.702258,-3.277627 -0.317582,-1.527706 -0.626461,-2.944786 -0.686419,-3.149072 -0.07932,-0.27055 0.45183,-0.765326 1.955878,-1.821645 2.358708,-1.656557 3.410999,-2.534617 3.241138,-2.704478 -0.06473,-0.06475 -1.655814,-0.239282 -3.535722,-0.38787 l -3.418012,-0.270173 -1.199276,-3.392955 c -0.659584,-1.866134 -1.259565,-3.334076 -1.333266,-3.262108 -0.07368,0.07197 -0.68398,1.598875 -1.356166,3.393117 l -1.222165,3.262248 -1.666588,0.143481 c -0.916627,0.07895 -2.541554,0.212895 -3.610942,0.297712 -1.069397,0.08482 -1.944357,0.231944 -1.944357,0.326923 0,0.09498 1.256147,1.047668 2.791436,2.11709 1.94208,1.352771 2.753582,2.043023 2.667044,2.26855 -0.30543,0.795948 -1.124625,6.346308 -1.037792,7.031461 0.0231,0.182132 1.907722,-1.232706 4.158421,-3.121826 z m -16.245174,1.713498 c 0.08528,-0.13798 0.376204,-0.09604 0.779084,0.112294 0.909739,0.470444 0.96066,0.436254 0.804522,-0.540178 -0.120703,-0.754846 -0.06451,-0.931703 0.416022,-1.309704 0.305564,-0.24036 0.555573,-0.48883 0.555573,-0.552155 0,-0.06333 -0.406196,-0.183778 -0.902659,-0.267654 -0.658842,-0.111295 -0.955253,-0.290816 -1.097356,-0.664577 -0.320615,-0.84329 -0.633704,-0.84508 -0.791396,-0.0041 -0.133419,0.711214 -0.231976,0.79882 -1.044863,0.928812 l -0.897536,0.143516 0.698844,0.577299 c 0.629689,0.520172 0.684707,0.662285 0.555982,1.436194 -0.13629,0.819347 -0.121437,0.847431 0.322413,0.609886 0.255905,-0.136954 0.526514,-0.348103 0.60137,-0.46921 z M 16.150355,70.506217 c 0.484853,-0.455496 0.53653,-0.459654 1.403145,-0.112905 0.992058,0.396949 1.088898,0.262891 0.55538,-0.768821 -0.329949,-0.638055 -0.319214,-0.695753 0.256386,-1.377791 l 0.600757,-0.711844 -1.023997,-0.06735 c -0.942508,-0.06198 -1.046038,-0.128271 -1.300978,-0.833295 -0.369859,-1.022827 -0.632125,-0.968069 -0.632125,0.131982 0,0.844424 -0.0563,0.92222 -0.9444,1.305 l -0.944401,0.407054 0.736318,0.41713 c 0.677716,0.383932 0.72614,0.483454 0.608456,1.250428 -0.146668,0.955856 -0.01953,1.022692 0.685459,0.360382 z M 33.414814,67.645955 34.265933,67.53485 33.557359,67.119172 C 32.896974,66.731763 32.858492,66.642789 32.991502,65.81098 l 0.142718,-0.892505 -0.55521,0.363782 c -0.730242,0.478474 -1.071144,0.458956 -1.408123,-0.08062 -0.152651,-0.244432 -0.419712,-0.444418 -0.59347,-0.444418 -0.246617,0 -0.273222,0.148881 -0.121279,0.678688 0.156531,0.545788 0.109979,0.763352 -0.237725,1.111061 -0.237801,0.237797 -0.540696,0.432365 -0.673096,0.432365 -0.51361,0 -0.0213,0.561578 0.585208,0.667577 0.547298,0.09565 0.686183,0.271542 0.948935,1.20185 l 0.307803,1.089796 0.588215,-1.09074 c 0.517599,-0.959802 0.690389,-1.104081 1.439333,-1.201848 z M 47.91098,57.391659 c 0.555246,-1.231312 0.883769,-1.52228 1.723331,-1.526328 1.309528,-0.0067 1.421405,-0.295066 0.521609,-1.346271 -0.773112,-0.903214 -0.80396,-1.001478 -0.670632,-2.135955 l 0.139768,-1.189175 -1.19061,0.551617 -1.190613,0.551616 -0.979472,-0.547435 c -0.538708,-0.301096 -1.028521,-0.547442 -1.088478,-0.547442 -0.05997,0 -0.0409,0.635678 0.04225,1.412604 0.147948,1.381495 0.136282,1.425225 -0.529638,1.98556 -0.887793,0.747034 -0.858761,0.965094 0.152375,1.144294 1.462675,0.259231 1.574393,0.343401 1.94781,1.467665 0.201068,0.605359 0.44235,1.100655 0.53618,1.100655 0.09383,0 0.357575,-0.414636 0.586101,-0.921405 z m -20.582087,-4.16433 0.425248,-0.833548 1.34927,0.0976 c 0.7421,0.05367 1.349273,0.01999 1.349273,-0.07482 0,-0.09482 -0.234402,-0.481818 -0.520889,-0.860004 -0.989283,-1.305916 -1.052587,-1.550743 -0.659633,-2.551111 0.198532,-0.505409 0.299526,-0.980364 0.224433,-1.055455 -0.07508,-0.07508 -0.553903,0.03049 -1.064023,0.234571 l -0.92749,0.371108 -1.065946,-0.898821 c -0.586273,-0.494349 -1.12579,-0.898813 -1.198931,-0.898813 -0.07314,0 -0.06822,0.632074 0.01093,1.404623 l 0.143906,1.404626 -0.915458,0.725054 c -0.503507,0.398781 -0.915465,0.813627 -0.915465,0.921877 0,0.10825 0.46698,0.332977 1.037735,0.499403 0.958595,0.279512 1.070891,0.389851 1.47251,1.446826 0.239127,0.62933 0.523539,1.089377 0.632028,1.022331 0.108495,-0.06702 0.388615,-0.49701 0.622499,-0.955469 z m 53.531729,-0.379288 c -0.121241,-0.439218 -0.188212,-0.826652 -0.148739,-0.860961 0.03947,-0.03435 0.471727,-0.266149 0.960593,-0.5152 l 0.888853,-0.452825 -1.086848,-0.275969 c -0.957516,-0.243138 -1.126788,-0.377665 -1.422538,-1.130554 -0.184621,-0.470016 -0.408642,-0.854569 -0.497801,-0.854569 -0.08912,0 -0.275436,0.449978 -0.413914,0.999948 -0.2022,0.802995 -0.349639,1.003032 -0.748572,1.01557 -0.27323,0.0086 -0.696766,0.09373 -0.941199,0.189195 -0.39327,0.153592 -0.339906,0.226919 0.463549,0.636954 0.815398,0.416123 0.89779,0.532787 0.808079,1.144076 -0.103343,0.703816 0.116828,0.869964 0.562309,0.424464 0.193509,-0.193504 0.381182,-0.169156 0.76663,0.09946 0.850188,0.592476 1.059143,0.484185 0.809598,-0.419584 z M 61.670404,42.704907 c 0.426394,-0.276203 0.776496,-0.555269 0.778007,-0.620132 0.0017,-0.06484 -0.288926,-0.228037 -0.645411,-0.362598 -0.498085,-0.188012 -0.741694,-0.507997 -1.052113,-1.381991 -0.222166,-0.625533 -0.455469,-1.136972 -0.518442,-1.136543 -0.06299,4.45e-4 -0.364489,0.525413 -0.670037,1.166617 -0.31927,0.670021 -0.791782,1.280813 -1.111052,1.43622 -0.751947,0.366001 -0.700297,0.811216 0.110403,0.951641 0.460576,0.07978 0.83648,0.378892 1.218999,0.969999 l 0.553062,0.854653 0.280663,-0.687833 c 0.154365,-0.378313 0.629529,-0.913821 1.055924,-1.190033 z"
         id="path302"
         inkscape:label="EscudoVacio" /></g></g></svg>
